<svg width="64" height="64" viewBox="0 0 64 64" fill="none" xmlns="http://www.w3.org/2000/svg">
<rect width="64" height="64" rx="20" fill="white"/>
<path d="M54.9073 51.146L50.4133 46.5537C53.4584 43.6559 55.2757 39.9968 55.2757 36.043C55.2757 31.0578 52.4025 26.5883 47.8347 23.4449C47.098 18.1895 46.484 14.0393 46.2139 12.6149C46.1402 12.1729 45.8701 10.8222 44.7159 10.503C44.0283 10.3065 43.3161 10.5521 42.6285 11.2397C40.7621 13.057 35.7278 17.5019 34.107 18.9508C33.3948 18.9017 32.6826 18.8772 31.9704 18.8772C30.3987 18.8772 28.8516 19 27.3782 19.221C27.2308 19.0245 27.0589 18.8035 26.8624 18.5334C26.3467 17.8703 25.6346 16.9617 24.8978 16.0039C23.6699 14.4077 22.2701 12.6395 21.4106 11.4853C20.8458 10.724 20.2073 10.3556 19.4951 10.4539C18.2918 10.6012 17.8498 11.9273 17.7024 12.3448C17.5551 12.8114 17.2604 13.7446 16.8183 15.0462C16.0325 17.4528 14.8292 21.161 13.3557 25.6551C10.4088 28.5529 8.64062 32.1383 8.64062 36.043C8.64062 45.5468 19.0776 53.2334 31.9704 53.2334C32.2897 53.2334 32.6089 53.2334 32.9036 53.2088C32.9527 53.2088 33.0264 53.2334 33.0755 53.2334H54.2197C55.3248 53.2334 55.7668 51.809 54.9073 51.146Z" fill="#6373FF"/>
<path d="M24.0492 29.381C24.5587 26.7167 23.8917 24.3504 22.5596 24.0957C21.2274 23.841 19.7345 25.7943 19.2251 28.4586C18.7157 31.1229 19.3826 33.4892 20.7148 33.7439C22.0469 33.9986 23.5398 32.0453 24.0492 29.381Z" fill="white"/>
<path d="M39.1733 29.3771C39.6827 26.7128 39.0157 24.3465 37.6836 24.0917C36.3514 23.837 34.8586 25.7904 34.3491 28.4547C33.8397 31.1189 34.5067 33.4853 35.8388 33.74C37.171 33.9947 38.6638 32.0413 39.1733 29.3771Z" fill="white"/>
<path fill-rule="evenodd" clip-rule="evenodd" d="M42.3372 32.2204C42.3163 32.1942 42.293 32.1695 42.2672 32.1466C42.1564 32.0481 42.0193 31.9999 41.8828 32C41.7463 31.9999 41.6092 32.0481 41.4984 32.1466C41.4726 32.1695 41.4493 32.1942 41.4285 32.2204C40.1138 33.7369 36.1001 37.154 30.6578 38.5361C30.4065 38.5999 30.2267 38.8244 30.2164 39.0873C30.1161 41.6342 30.5654 45.6931 32.2314 49.6689C33.8988 53.6482 36.8024 57.5805 41.6279 59.792C41.6859 59.8205 41.7483 59.8393 41.8127 59.8472C41.8729 59.8547 41.9332 59.8524 41.9915 59.8411C42.0422 59.8314 42.0914 59.8148 42.1378 59.792C46.9632 57.5805 49.8668 53.6482 51.5343 49.6689C53.2003 45.6931 53.6495 41.6342 53.5492 39.0873C53.5389 38.8244 53.3591 38.5999 53.1078 38.5361C47.6656 37.154 43.6519 33.7369 42.3372 32.2204Z" fill="white"/>
<path fill-rule="evenodd" clip-rule="evenodd" d="M42.1496 36.5499C42.2124 36.5786 42.2711 36.6179 42.3226 36.6676C42.3336 36.6781 42.344 36.6889 42.354 36.7001C43.2082 37.6237 45.8722 39.7508 49.4871 40.6091C49.7558 40.6729 49.9484 40.9001 49.9596 41.1664C50.0284 42.7991 49.7212 45.3867 48.5849 47.922C47.4451 50.4652 45.4537 52.99 42.138 54.4081C42.1333 54.4101 42.1285 54.4121 42.1238 54.414C42.0451 54.4459 41.9633 54.461 41.8828 54.4609C41.8023 54.461 41.7205 54.4459 41.6419 54.414C41.6371 54.4121 41.6324 54.4101 41.6277 54.4081C38.3119 52.99 36.3205 50.4652 35.1807 47.922C34.0445 45.3867 33.7372 42.7991 33.806 41.1664C33.8172 40.9001 34.0098 40.6729 34.2786 40.6091C37.8934 39.7508 40.5574 37.6237 41.4116 36.7001C41.4216 36.6889 41.432 36.6781 41.443 36.6676C41.4945 36.6179 41.5532 36.5786 41.6161 36.5499C41.7005 36.5113 41.7918 36.4922 41.8828 36.4922C41.9738 36.4922 42.0651 36.5113 42.1496 36.5499ZM41.8828 37.9497C40.6742 39.0624 38.2277 40.7939 35.0409 41.6543C35.0467 43.1399 35.3674 45.3155 36.3229 47.4473C37.3434 49.7244 39.0716 51.9192 41.8828 53.2029C44.6941 51.9192 46.4222 49.7244 47.4428 47.4473C48.3982 45.3155 48.719 43.1399 48.7247 41.6543C45.5379 40.7939 43.0914 39.0624 41.8828 37.9497Z" fill="#6373FF"/>
</svg>
