<svg width="282" height="58" viewBox="0 0 282 58" fill="none" xmlns="http://www.w3.org/2000/svg">
<path fill-rule="evenodd" clip-rule="evenodd" d="M50.7366 36.1489C50.7784 37.2099 50.7256 38.531 50.5309 39.9989C51.7827 37.8781 52.4781 35.5345 52.4781 33.0782C52.4781 28.0496 49.5799 23.5412 44.9724 20.3705C44.2293 15.0695 43.61 10.8831 43.3375 9.44638C43.2632 9.0005 42.9907 7.63808 41.8265 7.31606C41.1329 7.11789 40.4145 7.3656 39.7209 8.05919C38.1684 9.57081 34.4429 12.8849 32.2672 14.8203L32.2663 14.8211C31.804 15.2323 31.4118 15.5812 31.1253 15.8374C30.4069 15.7878 29.6885 15.7631 28.9702 15.7631C27.3848 15.7631 25.8242 15.8869 24.338 16.1098C24.2909 16.0471 24.2412 15.9816 24.1892 15.9131C24.0769 15.7654 23.9531 15.6024 23.8178 15.4163C23.6802 15.2393 23.5287 15.0451 23.3666 14.8372L23.3645 14.8346C22.9142 14.257 22.3818 13.5743 21.8361 12.8648C21.3666 12.2546 20.8722 11.6193 20.3921 11.0024C19.6055 9.99165 18.8569 9.02988 18.3185 8.30691C17.7488 7.539 17.1048 7.16743 16.3864 7.26651C15.1977 7.41206 14.7455 8.69787 14.5877 9.14656L14.5781 9.1739C14.4295 9.64455 14.1322 10.5859 13.6863 11.8987C13.439 12.656 13.1505 13.5419 12.8258 14.5389C12.1096 16.7379 11.2161 19.4813 10.1936 22.5999C7.22103 25.5229 5.4375 29.1395 5.4375 33.0782C5.4375 42.6646 15.9653 50.418 28.9702 50.418C29.2922 50.418 29.6142 50.418 29.9115 50.3932C29.9363 50.3932 29.9672 50.3994 29.9982 50.4056C30.0292 50.4118 30.0601 50.418 30.0849 50.418H31.1295C30.3696 49.2554 29.744 48.0411 29.2334 46.8225C27.5529 42.8122 27.0997 38.718 27.2009 36.1489C27.2113 35.8838 27.3926 35.6573 27.6461 35.593C33.1357 34.1988 37.1843 30.752 38.5105 29.2223C38.5315 29.1959 38.555 29.171 38.581 29.1479C38.6928 29.0486 38.8311 28.9999 38.9688 29C39.1064 28.9999 39.2447 29.0486 39.3565 29.1479C39.3825 29.171 39.406 29.1959 39.427 29.2223C40.7532 30.752 44.8018 34.1988 50.2914 35.593C50.5449 35.6573 50.7262 35.8838 50.7366 36.1489ZM20.9801 26.3583C21.4939 23.6708 20.8212 21.2839 19.4774 21.027C18.1337 20.7701 16.6279 22.7404 16.114 25.4279C15.6002 28.1153 16.2729 30.5022 17.6166 30.7591C18.9604 31.0161 20.4662 29.0457 20.9801 26.3583ZM34.7333 21.0229C36.077 21.2798 36.7498 23.6667 36.2359 26.3541C35.7221 29.0416 34.2162 31.0119 32.8725 30.755C31.5288 30.4981 30.856 28.1112 31.3699 25.4237C31.8837 22.7363 33.3896 20.7659 34.7333 21.0229Z" fill="#6373FF"/>
<path d="M52.1065 48.3125L49.2513 45.3949C49.0855 45.8701 48.9034 46.3469 48.7041 46.8225C48.1935 48.0411 47.5679 49.2554 46.808 50.418H51.4129C52.5276 50.418 52.9735 48.9813 52.1065 48.3125Z" fill="#6373FF"/>
<path fill-rule="evenodd" clip-rule="evenodd" d="M39.4124 33.7082C39.3604 33.658 39.3012 33.6184 39.2378 33.5895C39.1526 33.5505 39.0606 33.5312 38.9688 33.5312C38.8769 33.5312 38.7849 33.5505 38.6997 33.5895C38.6363 33.6184 38.5771 33.658 38.5251 33.7082C38.5141 33.7188 38.5035 33.7297 38.4935 33.7409C37.6319 34.6726 34.9447 36.8182 31.2984 37.684C31.0273 37.7483 30.833 37.9775 30.8217 38.2461C30.7523 39.893 31.0622 42.5031 32.2083 45.0604C33.3581 47.6257 35.3668 50.1725 38.7114 51.6029L38.7257 51.6089C38.805 51.6411 38.8875 51.6563 38.9688 51.6562C39.05 51.6563 39.1325 51.6411 39.2118 51.6089L39.2261 51.6029C42.5707 50.1725 44.5794 47.6257 45.7291 45.0604C46.8753 42.5031 47.1852 39.893 47.1158 38.2461C47.1045 37.9775 46.9102 37.7483 46.6391 37.684C42.9928 36.8182 40.3056 34.6726 39.444 33.7409C39.434 33.7297 39.4234 33.7188 39.4124 33.7082ZM32.0674 38.7383C35.2819 37.8703 37.7496 36.1238 38.9688 35.0015C40.1879 36.1238 42.6556 37.8703 45.8701 38.7383C45.8643 40.2368 45.5408 42.4312 44.5771 44.5816C43.5477 46.8785 41.8044 49.0924 38.9687 50.3872C36.133 49.0924 34.3898 46.8785 33.3604 44.5816C32.3967 42.4312 32.0732 40.2368 32.0674 38.7383Z" fill="#6373FF"/>
<path d="M145.077 50.4403H123.679C121.512 50.4403 119.857 49.928 118.714 48.9034C117.571 47.8789 117 46.5391 117 44.8841C117 43.229 117.611 41.4952 118.832 39.6825L135.383 15.6844H118.182V8.35498H145.077V14.8569L125.866 43.1108H145.077V50.4403Z" fill="#6373FF"/>
<path d="M111.216 50.4403H103V8.35498H111.216V50.4403Z" fill="#6373FF"/>
<path d="M96.5 38.323C96.5 42.2242 95.4361 45.219 93.3081 47.3075C91.2196 49.396 88.2839 50.4403 84.501 50.4403H78.8266C74.1767 50.4403 70.8666 49.6325 68.8963 48.0168C66.9654 46.4012 66 43.6034 66 39.6234V8.35498H83.7917C87.8111 8.35498 90.8256 9.35983 92.8353 11.3695C94.8844 13.3792 95.9089 16.2164 95.9089 19.8811C95.9089 22.0091 95.3573 23.8217 94.2539 25.3191C93.1899 26.8165 92.0078 27.8805 90.7074 28.511C94.5691 30.3237 96.5 33.5943 96.5 38.323ZM83.1415 24.7872C86.1757 24.7872 87.6928 23.27 87.6928 20.2358C87.6928 17.2016 86.1757 15.6844 83.1415 15.6844H74.2161V24.7872H83.1415ZM88.2839 37.9093C88.2839 36.0178 87.949 34.5992 87.2791 33.6534C86.6092 32.6683 85.4073 32.1757 83.6735 32.1757H74.2161V38.7959C74.2161 40.4115 74.6102 41.5346 75.3983 42.1651C76.2258 42.7956 77.5656 43.1108 79.4177 43.1108H83.6735C86.7471 43.1108 88.2839 41.377 88.2839 37.9093Z" fill="#6373FF"/>
<path d="M277 50.4488H268.782V8.35474H277V50.4488Z" fill="#6373FF"/>
<path d="M263.443 50.4488H253.925L245.707 34.8409H239.795V50.4488H231.577V17.4002C231.577 14.2471 232.306 11.9611 233.765 10.5422C235.223 9.08389 237.667 8.35474 241.096 8.35474H248.072C252.25 8.35474 255.561 9.63569 258.004 12.1976C260.487 14.7201 261.729 17.9323 261.729 21.8343C261.729 24.6721 260.98 27.1355 259.482 29.2244C258.024 31.2739 256.211 32.6928 254.043 33.4811L263.443 50.4488ZM247.54 27.9829C249.274 27.9829 250.693 27.3917 251.796 26.2092C252.939 24.9874 253.511 23.4897 253.511 21.7161C253.511 19.903 252.959 18.4447 251.856 17.3411C250.791 16.2375 249.353 15.6857 247.54 15.6857H243.46C241.017 15.6857 239.795 16.9273 239.795 19.4103V27.9829H247.54Z" fill="#6373FF"/>
<path d="M225.702 28.2193V30.6433C225.702 33.5599 225.604 36.0036 225.407 37.9743C225.21 39.945 224.816 41.7974 224.224 43.5316C223.633 45.2659 222.806 46.6453 221.741 47.6701C220.677 48.6555 219.278 49.424 217.544 49.9758C215.849 50.5276 213.78 50.8035 211.336 50.8035C208.892 50.8035 206.804 50.5276 205.069 49.9758C203.374 49.3846 201.995 48.5963 200.931 47.611C199.867 46.6256 199.039 45.2659 198.448 43.5316C197.857 41.758 197.462 39.8859 197.265 37.9152C197.068 35.9445 196.97 33.4811 196.97 30.5251V28.2785C196.97 22.2087 197.443 17.7352 198.389 14.858C198.98 13.1238 199.808 11.7837 200.872 10.8378C203.118 8.94593 206.606 8 211.336 8C216.854 8 220.618 9.49773 222.628 12.4932C224.678 15.4886 225.702 20.7307 225.702 28.2193ZM217.78 32.476V25.9136C217.741 22.0117 217.307 19.2724 216.48 17.6958C215.652 16.1193 213.937 15.331 211.336 15.331C208.735 15.331 207.02 16.1193 206.193 17.6958C205.365 19.233 204.931 21.8934 204.892 25.6771V32.476C204.931 36.6933 205.345 39.5903 206.133 41.1668C206.922 42.704 208.676 43.4725 211.395 43.4725C214.115 43.4725 215.849 42.7237 216.598 41.2259C217.347 39.7282 217.741 36.8116 217.78 32.476Z" fill="#6373FF"/>
<path d="M182.689 25.3224L175.121 41.2851C174.018 43.4134 172.638 44.4776 170.983 44.4776C169.367 44.4776 168.007 43.3543 166.904 41.1077L159.218 25.3224V50.4488H151V11.3547C151 9.69788 152.343 8.35474 154 8.35474H158.475C158.857 8.35474 159.206 8.5723 159.374 8.91541L170.983 32.6534L182.533 8.91717C182.701 8.5731 183.05 8.35474 183.433 8.35474H187.907C189.563 8.35474 190.907 9.69788 190.907 11.3547V50.4488H182.689V25.3224Z" fill="#6373FF"/>
</svg>
